<?xml version="1.0" encoding="utf-8"?>
<!-- Generator: Adobe Illustrator 25.2.1, SVG Export Plug-In . SVG Version: 6.00 Build 0)  -->
<svg version="1.1" xmlns="http://www.w3.org/2000/svg" xmlns:xlink="http://www.w3.org/1999/xlink" x="0px" y="0px"
	 viewBox="0 0 800 500" style="enable-background:new 0 0 800 500;" xml:space="preserve">
<style type="text/css">
	.st0{display:none;}
	.st1{fill-rule:evenodd;clip-rule:evenodd;}
	.st2{fill:#FEFAFA;}
	.st3{fill:#1D1D1B;}
</style>
<g id="Lines" class="st0">
</g>
<g id="Ebene_1">
	<path class="st1" d="M420.8,228.1h8.5v43.9h-10.8l-12.6-20.2c-2.1-3.5-4-7.3-4-7.3h-0.1v27.5h-8.5v-43.9h10l14.9,23.9
		c1,1.6,1.8,3.2,2.6,5l0,0L420.8,228.1L420.8,228.1z M469.5,246h-14.8v-18H444v43.9h10.8v-18.7h14.8v18.7h10.8v-43.9h-10.8V246z
		 M311.9,252.9h14v-6.6h-14v-11.4h18.7v-6.8h-29.5v43.9h29.8v-7.3h-19V252.9L311.9,252.9z M273,238.1c-0.7-0.8-0.6-2.1,0.2-2.8
		c0.4-0.3,0.9-0.5,1.4-0.5h16.1v-6.7h-19c-5.1-0.2-9.3,3.7-9.6,8.8c0,2.6,0.2,4.4,4.1,8.5l14.3,15c1,0.9,1.1,2.4,0.2,3.4
		c-0.5,0.5-1.2,0.9-1.9,0.8h-17.6v7.3h20.2c5.7,0.2,10.5-4.3,10.7-10c0-0.1,0-0.2,0-0.3c0-2.9-0.7-4.8-4.5-8.8L273,238.1z
		 M370.1,256.9L370.1,256.9c-0.7-1.7-1.6-3.4-2.6-5L352.6,228h-10v43.9h8.5v-27.4h0.1c0,0,1.8,3.8,4,7.3l12.6,20.2h10.8v-43.9h-8.5
		L370.1,256.9L370.1,256.9z M608.1,252.9h14v-6.6h-14v-11.4h18.7v-6.8h-29.5v43.9h29.8v-7.3h-19V252.9L608.1,252.9z M674.5,271.9
		h-11.7l-8.4-18h-4.7v18h-10.8v-43.9h19.7c9.5,0,13.9,5.9,13.9,12.7c0,5.4-3.4,10.1-8.5,11.9L674.5,271.9z M663.2,241.1
		c0-2-1.2-6.2-6.9-6.2h-6.7v12.5h6.6C662.1,247.3,663.2,243,663.2,241.1z M569.1,238.1c-0.7-0.8-0.6-2.1,0.2-2.8
		c0.4-0.3,0.9-0.5,1.4-0.5h16.1v-6.8h-19.1c-5.1-0.2-9.3,3.7-9.6,8.8c0,2.6,0.2,4.4,4.1,8.5l14.3,15c1.1,0.8,1.3,2.3,0.4,3.4
		c-0.5,0.6-1.2,1-2,0.9h-17.7v7.3h20.2c5.7,0.2,10.5-4.3,10.7-10c0-0.1,0-0.2,0-0.3c0-2.9-0.7-4.8-4.5-8.8L569.1,238.1z
		 M505.8,252.9h14v-6.6h-14v-11.4h18.7v-6.8H495v43.9h29.8v-7.3h-19L505.8,252.9L505.8,252.9z M536.6,272h10.8v-43.9h-10.8V272
		L536.6,272z M125.5,213v74h98.7v-74H125.5z M179.8,219.8L179.8,219.8c-5.9,2.3-11.5,7.2-16.1,17.2c-1.3,2.9-3.8,8.5-4.9,11
		c-9.1,20.1-13.8,24.4-27.6,24.4v-53.8h48.4c0.4,0,0.7,0.3,0.7,0.6C180.2,219.5,180,219.7,179.8,219.8z M218.5,227.6v53.8h-48.5
		c-0.4,0-0.7-0.3-0.7-0.6c0-0.3,0.2-0.5,0.4-0.6l0,0c5.9-2.3,11.5-7.2,16.1-17.2c1.3-2.9,3.8-8.5,4.9-11
		C199.9,231.9,204.6,227.6,218.5,227.6L218.5,227.6z"/>
</g>
</svg>
