<?xml version="1.0" encoding="utf-8"?>
<!-- Generator: Adobe Illustrator 25.2.1, SVG Export Plug-In . SVG Version: 6.00 Build 0)  -->
<svg version="1.1" xmlns="http://www.w3.org/2000/svg" xmlns:xlink="http://www.w3.org/1999/xlink" x="0px" y="0px"
	 viewBox="0 0 800 500" style="enable-background:new 0 0 800 500;" xml:space="preserve">
<style type="text/css">
	.st0{display:none;}
	.st1{fill-rule:evenodd;clip-rule:evenodd;}
	.st2{fill:#FEFAFA;}
	.st3{fill:#1D1D1B;}
</style>
<g id="Lines" class="st0">
</g>
<g id="Ebene_1">
	<g>
		<polygon class="st3" points="320.6,141.2 340.5,141.2 344.1,170.1 344.2,170.1 347.8,141.2 367.7,141.2 367.7,199.5 355.5,199.5 
			355.5,154.1 355.4,154.1 348.3,199.5 340.1,199.5 333,154.1 332.8,154.1 332.8,199.5 320.6,199.5 320.6,141.2 		"/>
		<path class="st3" d="M386.9,178.7h6.3l-2.9-28.5h-0.1L386.9,178.7L386.9,178.7z M381.8,141.2h16.7l10.3,58.3h-13.2l-1.2-10.4h-8.9
			l-1.3,10.4h-12.6L381.8,141.2L381.8,141.2z"/>
		<polygon class="st3" points="412.5,141.2 424.7,141.2 424.7,165 424.9,165 433.3,141.2 446.7,141.2 436.2,165.3 446.8,199.5 
			433.3,199.5 427.7,178.6 424.7,183.4 424.7,199.5 412.5,199.5 412.5,141.2 		"/>
		<polygon class="st3" points="451,141.2 479.1,141.2 479.1,152.4 463.7,152.4 463.7,164 477.2,164 477.2,175.2 463.7,175.2 
			463.7,188.2 479.7,188.2 479.7,199.5 451,199.5 451,141.2 		"/>
		<polygon class="st3" points="247,220.4 273.3,220.4 273.3,231.6 259.6,231.6 259.6,243.2 271.9,243.2 271.9,254.5 259.6,254.5 
			259.6,278.7 247,278.7 247,220.4 		"/>
		<path class="st3" d="M277.8,220.4h12.6v42.6c0,3.1,0,5.9,3.6,5.9c3.6,0,3.6-2.8,3.6-5.9v-42.6h12.6v42.4
			c0,10.4-6.2,16.9-16.3,16.9c-10,0-16.3-6.5-16.3-16.9V220.4L277.8,220.4z"/>
		<path class="st3" d="M328.9,243.6h3.1c4.3,0,4.3-3.1,4.3-6.9c0-4.1,0-6.4-4.9-6.4h-2.5V243.6L328.9,243.6z M316.3,220.4H333
			c11.3,0,16,3.6,16,14.1c0,6.9-0.9,11.3-7.6,13.5v0.1c4.5,0.9,7.3,4.4,7.3,9.3v10.3c0,3.9-0.1,9.1,1.3,11h-12.5
			c-1.4-1.9-1.4-7.2-1.4-11v-9.3c0-3.4-1.2-4.8-4.8-4.8h-2.3v25.2h-12.6V220.4L316.3,220.4z"/>
		<polygon class="st3" points="354.8,220.4 368.6,220.4 378.8,254.7 378.9,254.7 378.9,220.4 391.1,220.4 391.1,278.7 377.4,278.7 
			367.2,242.6 367,242.6 367,278.7 354.8,278.7 354.8,220.4 		"/>
		<polygon class="st3" points="397.5,220.4 410.1,220.4 410.1,278.7 397.5,278.7 397.5,220.4 		"/>
		<polygon class="st3" points="414.4,220.4 443.4,220.4 443.4,231.6 435.2,231.6 435.2,278.7 422.6,278.7 422.6,231.6 414.4,231.6 
			414.4,220.4 		"/>
		<path class="st3" d="M447.3,220.4h12.6v42.6c0,3.1,0,5.9,3.6,5.9c3.6,0,3.6-2.8,3.6-5.9v-42.6h12.6v42.4
			c0,10.4-6.2,16.9-16.3,16.9c-10,0-16.3-6.5-16.3-16.9V220.4L447.3,220.4z"/>
		<path class="st3" d="M498.4,243.6h3.1c4.3,0,4.3-3.1,4.3-6.9c0-4.1,0-6.4-4.9-6.4h-2.5V243.6L498.4,243.6z M485.8,220.4h16.7
			c11.3,0,16,3.6,16,14.1c0,6.9-0.9,11.3-7.6,13.5v0.1c4.5,0.9,7.3,4.4,7.3,9.3v10.3c0,3.9-0.1,9.1,1.3,11H507
			c-1.4-1.9-1.4-7.2-1.4-11v-9.3c0-3.4-1.2-4.8-4.8-4.8h-2.3v25.2h-12.6V220.4L485.8,220.4z"/>
		<polygon class="st3" points="524.3,220.4 552.4,220.4 552.4,231.6 536.9,231.6 536.9,243.2 550.5,243.2 550.5,254.5 536.9,254.5 
			536.9,267.4 553,267.4 553,278.7 524.3,278.7 524.3,220.4 		"/>
		<path class="st3" d="M261.9,315.5c0-11.4,6.9-16.9,16.3-16.9c9.4,0,16.3,5.5,16.3,16.9v5.4h-12.6v-6.6c0-2,0-5.3-3.6-5.3
			c-3.6,0-3.6,3.4-3.6,5.3v28.8c0,1.5,0,5.3,3.6,5.3c3.6,0,3.6-3.8,3.6-5.3v-8.5h12.6v7.4c0,10.4-6.2,16.9-16.3,16.9
			c-10,0-16.3-6.5-16.3-16.9V315.5L261.9,315.5z"/>
		<polygon class="st3" points="300.8,299.6 313.5,299.6 313.5,357.9 300.8,357.9 300.8,299.6 		"/>
		<path class="st3" d="M332.5,322.8h3.1c4.3,0,4.3-3.1,4.3-6.9c0-4.1,0-6.4-4.9-6.4h-2.5V322.8L332.5,322.8z M319.8,299.6h16.7
			c11.3,0,16,3.6,16,14.1c0,6.9-0.9,11.3-7.6,13.5v0.1c4.5,0.9,7.3,4.4,7.3,9.3v10.3c0,3.9-0.1,9.1,1.3,11H341
			c-1.4-1.9-1.4-7.2-1.4-11v-9.3c0-3.4-1.2-4.8-4.8-4.8h-2.3v25.2h-12.6V299.6L319.8,299.6z"/>
		<path class="st3" d="M358.3,315.5c0-11.4,6.9-16.9,16.3-16.9s16.3,5.5,16.3,16.9v5.4h-12.6v-6.6c0-2,0-5.3-3.6-5.3
			s-3.6,3.4-3.6,5.3v28.8c0,1.5,0,5.3,3.6,5.3s3.6-3.8,3.6-5.3v-8.5h12.6v7.4c0,10.4-6.2,16.9-16.3,16.9c-10,0-16.3-6.5-16.3-16.9
			V315.5L358.3,315.5z"/>
		<path class="st3" d="M396.8,299.6h12.6v42.6c0,3.1,0,5.9,3.6,5.9c3.6,0,3.6-2.8,3.6-5.9v-42.6h12.6V342c0,10.4-6.2,16.9-16.3,16.9
			c-10,0-16.3-6.5-16.3-16.9V299.6L396.8,299.6z"/>
		<polygon class="st3" points="435.3,299.6 448,299.6 448,346.7 461.7,346.7 461.7,357.9 435.3,357.9 435.3,299.6 		"/>
		<path class="st3" d="M479.9,337.2h6.3l-3-28.5h-0.1L479.9,337.2L479.9,337.2z M474.9,299.6h16.7l10.3,58.3h-13.2l-1.2-10.4h-8.9
			l-1.3,10.4h-12.6L474.9,299.6L474.9,299.6z"/>
		<path class="st3" d="M518.2,322.8h3.1c4.3,0,4.3-3.1,4.3-6.9c0-4.1,0-6.4-4.9-6.4h-2.5V322.8L518.2,322.8z M505.5,299.6h16.7
			c11.3,0,16,3.6,16,14.1c0,6.9-0.9,11.3-7.6,13.5v0.1c4.5,0.9,7.3,4.4,7.3,9.3v10.3c0,3.9-0.1,9.1,1.3,11h-12.5
			c-1.4-1.9-1.4-7.2-1.4-11v-9.3c0-3.4-1.2-4.8-4.8-4.8h-2.3v25.2h-12.6V299.6L505.5,299.6z"/>
	</g>
</g>
</svg>
