<?xml version="1.0" encoding="utf-8"?>
<!-- Generator: Adobe Illustrator 25.2.1, SVG Export Plug-In . SVG Version: 6.00 Build 0)  -->
<svg version="1.1" xmlns="http://www.w3.org/2000/svg" xmlns:xlink="http://www.w3.org/1999/xlink" x="0px" y="0px"
	 viewBox="0 0 800 500" style="enable-background:new 0 0 800 500;" xml:space="preserve">
<style type="text/css">
	.st0{display:none;}
	.st1{fill-rule:evenodd;clip-rule:evenodd;}
	.st2{fill:#FEFAFA;}
	.st3{fill:#1D1D1B;}
</style>
<g id="Lines" class="st0">
</g>
<g id="Ebene_1">
	<g>
		<path id="path12192" d="M324.6,202.1c-1.4,0-2.7,0.2-4,0.6c-5,1.6-8.3,6.2-8.3,11.4c0,5.2,3.3,9.8,8.3,11.4
			c1.3,0.4,2.7,0.6,4.1,0.6c0,0,31.2,0,33,0c-1.3,1.4-45.7,49.7-45.7,49.7c-2.6,2.8-3.9,6.3-3.9,10.6l0,0.6
			c0.3,5.2,4.3,11,12.6,11.4l0.8,0h65.8c1.4,0,2.8-0.2,4.1-0.6c4.9-1.6,8.2-6.2,8.2-11.4c0-5.2-3.3-9.8-8.2-11.4l0,0
			c-1.3-0.4-2.7-0.6-4.1-0.6c0,0-36.3,0-38.1,0c1.2-1.4,44.8-49.2,44.8-49.2c2.9-3.1,4.6-6.7,4.6-9.9l0-1.2
			c-0.1-2.2-0.6-4.1-1.5-5.8c-1.4-2.7-3.6-4.5-6.5-5.5c-1.4-0.4-2.9-0.7-4.5-0.7L324.6,202.1 M328.4,368.6c0,9.5-8.7,18.7-22.8,18.7
			c-8.8,0-14.3-4.8-14.3-10.6c0-7.8,5.8-11.1,16.6-12.7l9.4-1.4c3-0.5,8.3-1.4,11.1-4.1V368.6L328.4,368.6z M357.4,389.5
			c-0.8-2.6-1.7-5.9-1.7-12.4v-43.3c0-18-15.4-28-43.4-28c-26.2,0-42.4,12.4-42.4,24.4c0,6.6,5.4,12,12,12c2.9,0,5.5-1,7.6-2.7
			c1.3-1,2.5-2.1,3.8-3.3c4-3.9,8.5-8.3,18.9-8.3c7.2,0,14.8,2.4,14.8,9.1c0,5.9-3.3,7.3-9.8,8.1l-15.7,1.8
			c-18.5,2.1-37.4,7.5-37.4,31.2c0,17.4,15.6,27.8,30.6,27.8c14.1,0,25.1-4.3,34.2-13.3c1.4,8.6,7.1,13.3,16.3,13.3
			c7.4,0,13.1-5,13.1-11.4C358.3,392.6,357.9,391.2,357.4,389.5 M405.5,177.5l0,106.1c0,8.2,6.6,14.8,14.8,14.8
			c8,0,14.7-6.5,14.8-14.6c0,0,0-0.2,0-0.2v-42.6c0-11.4,9.2-18.4,17.7-18.4c12.5,0,14.4,10,14.4,16v45.1v0.2
			c0.1,8,6.8,14.5,14.8,14.5c8.2,0,14.8-6.6,14.8-14.8v-50.2c0-22.4-12.9-35.8-34.4-35.8c-10.9,0-20.3,3.8-27.3,10.9
			c0-1.9,0-30.9,0-30.9v-0.3c-0.1-8-6.8-14.5-14.8-14.5C412.1,162.7,405.5,169.3,405.5,177.5 M469.2,315.1c0,0-0.5,1.7-0.5,1.7
			l-0.6,2.6c0,0-9.7,43.1-11.2,49.9c-0.4-1.8-9.7-44.8-9.7-44.8c-0.4-1.8-1-4.2-1.7-6.4l-0.6-1.8c-2.7-6.5-9-10.7-16.1-10.7
			c-6.7,0-12.9,4-15.8,10.1c-0.5,1.3-0.9,2.7-1.3,4.4c-0.4,1.6-0.7,3.1-1,4.5c0,0-8.2,38.6-9.6,45c-0.4-1.7-12.1-50.1-12.1-50.1
			l-0.5-2.1c-0.3-1.3-0.6-2.3-0.9-3.2c-2.2-5.2-7.3-8.6-13-8.6c-4.1,0-8,1.8-10.8,4.9c-2,2.3-3.2,5.1-3.4,8.2c0,0,0,0.6,0,0.6
			c0,0.8,0,1.7,0.1,2.5c0.3,2.9,1,5.3,1.7,7.5l18.9,61.5l0.4,1.3l1,2.8c2.9,6.7,9.5,11,16.7,11l0.1,0c7.6,0,14.2-4.6,17-11.6
			c0,0,0.9-3.1,0.9-3.1c0,0,0.2-0.6,0.2-0.6s10.7-42.8,11.1-44.4c0.4,1.6,11.3,44.9,11.3,44.9l0.8,2.9c2.7,7.1,9.6,11.8,17.1,11.8
			l0.2,0c7.1,0,13.6-4.2,16.6-10.7c0.4-1,0.8-2.1,1.2-3.4l0.3-1l18.9-61.5c0.7-2.3,1.4-4.6,1.7-7.5c0.1-0.8,0.1-1.7,0.1-2.5l0-0.6
			c-0.2-3.1-1.4-5.9-3.4-8.2c-2.8-3.1-6.7-4.9-10.8-4.9C476.6,305.6,471.2,309.4,469.2,315.1"/>
		<path id="path12368" d="M527.9,113.4h1.5v1.6h0c0.7-1.2,1.8-1.8,3.2-1.8c2.6,0,3.4,1.5,3.4,3.6v6.4h-1.6v-6.6c0-1.2-0.8-2-2-2
			c-2,0-2.9,1.3-2.9,3.1v5.5h-1.6V113.4 M524.3,117.4c-0.1-1.5-1.2-2.8-2.8-2.8c-1.7,0-2.7,1.3-2.8,2.8H524.3z M525.9,120.1
			c-0.4,2.2-2,3.3-4.2,3.3c-3.1,0-4.6-2.2-4.7-5.2c0-2.9,1.9-5.1,4.6-5.1c3.5,0,4.5,3.2,4.4,5.6h-7.3c-0.1,1.7,0.9,3.2,3.1,3.2
			c1.3,0,2.3-0.6,2.5-1.9H525.9 M514.1,113.4h2v1.4h-2v6.1c0,0.7,0.2,0.9,1.2,0.9h0.7v1.4h-1.2c-1.7,0-2.3-0.3-2.3-2.1v-6.2h-1.7
			v-1.4h1.7v-2.9h1.6V113.4 M506.7,114.9h-1.6v-1.4h1.6V112c0-1.6,0.9-2.4,2.7-2.4c0.3,0,0.7,0.1,1,0.2v1.4
			c-0.3-0.1-0.6-0.1-0.9-0.1c-0.8,0-1.2,0.2-1.2,1.1v1.4h1.9v1.4h-1.9v8.4h-1.6V114.9 M501.8,118.2c-0.6,0.5-1.8,0.5-2.9,0.7
			c-1.1,0.2-2,0.6-2,1.8c0,1.1,0.9,1.4,1.9,1.4c2.1,0,3-1.3,3-2.2L501.8,118.2L501.8,118.2z M504.4,123.2c-0.3,0.2-0.6,0.3-1.2,0.3
			c-0.8,0-1.4-0.5-1.4-1.5c-0.9,1-2.1,1.5-3.4,1.5c-1.8,0-3.2-0.8-3.2-2.7c0-2.2,1.6-2.7,3.3-3c1.8-0.3,3.3-0.2,3.3-1.4
			c0-1.4-1.2-1.6-2.2-1.6c-1.4,0-2.4,0.4-2.4,1.9h-1.6c0.1-2.4,2-3.3,4.1-3.3c1.8,0,3.7,0.4,3.7,2.7v5c0,0.8,0,1.1,0.5,1.1
			c0.1,0,0.3,0,0.5-0.1V123.2 M485.4,109.7h1.6v5.2h0c0.5-1.2,1.9-1.7,3.1-1.7c2.6,0,3.4,1.5,3.4,3.6v6.4h-1.6v-6.6c0-1.2-0.8-2-2-2
			c-2,0-2.9,1.3-2.9,3.1v5.5h-1.6V109.7 M481.6,116.6c-0.2-1.2-1.1-2-2.4-2c-2.3,0-3.1,1.8-3.1,3.8c0,1.8,0.8,3.6,2.9,3.6
			c1.6,0,2.5-0.9,2.7-2.4h1.6c-0.4,2.4-1.9,3.8-4.3,3.8c-3,0-4.6-2.1-4.6-5c0-2.9,1.5-5.2,4.6-5.2c2.2,0,4,1,4.2,3.4H481.6
			 M466.5,120.2c0.1,1.4,1.3,1.9,2.6,1.9c1,0,2.4-0.2,2.4-1.5c0-1.2-1.6-1.5-3.2-1.8c-1.6-0.4-3.2-0.9-3.2-2.8c0-2,2-2.8,3.7-2.8
			c2.2,0,3.9,0.7,4,3.1h-1.6c-0.1-1.2-1.2-1.6-2.3-1.6c-1,0-2.1,0.3-2.1,1.3c0,1.2,1.7,1.3,3.2,1.7c1.6,0.4,3.2,0.9,3.2,2.8
			c0,2.3-2.2,3.1-4.2,3.1c-2.2,0-4.1-0.9-4.2-3.3H466.5 M455.2,113.4h1.5v1.6h0c0.7-1.2,1.8-1.8,3.2-1.8c2.6,0,3.4,1.5,3.4,3.6v6.4
			h-1.6v-6.6c0-1.2-0.8-2-2-2c-1.9,0-2.9,1.3-2.9,3.1v5.5h-1.6L455.2,113.4 M451.8,117.4c-0.1-1.5-1.2-2.8-2.8-2.8
			c-1.7,0-2.7,1.3-2.8,2.8H451.8z M453.4,120.1c-0.4,2.2-2,3.3-4.2,3.3c-3.1,0-4.6-2.2-4.7-5.2c0-2.9,1.9-5.1,4.6-5.1
			c3.5,0,4.5,3.2,4.4,5.6h-7.3c-0.1,1.7,0.9,3.2,3.1,3.2c1.3,0,2.3-0.6,2.5-1.9L453.4,120.1 M436.5,120.2c0.1,1.4,1.3,1.9,2.6,1.9
			c1,0,2.4-0.2,2.4-1.5c0-1.2-1.6-1.5-3.2-1.8c-1.6-0.4-3.2-0.9-3.2-2.8c0-2,1.9-2.8,3.7-2.8c2.2,0,3.9,0.7,4,3.1h-1.6
			c-0.1-1.2-1.2-1.6-2.3-1.6c-1,0-2.1,0.3-2.1,1.3c0,1.2,1.7,1.3,3.2,1.7c1.6,0.4,3.2,0.9,3.2,2.8c0,2.3-2.2,3.1-4.2,3.1
			c-2.2,0-4.1-0.9-4.2-3.3H436.5 M427,120.2c0.1,1.4,1.3,1.9,2.6,1.9c1,0,2.4-0.2,2.4-1.5c0-1.2-1.6-1.5-3.2-1.8
			c-1.6-0.4-3.2-0.9-3.2-2.8c0-2,1.9-2.8,3.7-2.8c2.2,0,3.9,0.7,4,3.1h-1.6c-0.1-1.2-1.2-1.6-2.3-1.6c-1,0-2.1,0.3-2.1,1.3
			c0,1.2,1.7,1.3,3.2,1.7c1.6,0.4,3.2,0.9,3.2,2.8c0,2.3-2.2,3.1-4.2,3.1c-2.2,0-4.1-0.9-4.2-3.3L427,120.2 M421.8,113.4h1.6v9.8
			h-1.6V113.4z M423.4,111.7h-1.6v-2h1.6V111.7 M416.8,123.2h-1.9l-3.1-11.4h0l-3.1,11.4h-1.9l-3.5-13.5h1.8l2.7,11.3h0l3-11.3h2
			l3,11.3h0l2.7-11.3h1.8L416.8,123.2 M395.8,117.4c-0.1-1.5-1.2-2.8-2.8-2.8c-1.7,0-2.7,1.3-2.8,2.8H395.8z M397.3,120.1
			c-0.4,2.2-2,3.3-4.2,3.3c-3.1,0-4.6-2.2-4.7-5.2c0-2.9,1.9-5.1,4.6-5.1c3.5,0,4.5,3.2,4.4,5.6h-7.3c-0.1,1.7,0.9,3.2,3.1,3.2
			c1.3,0,2.3-0.6,2.5-1.9H397.3 M385.7,113.4h2v1.4h-2v6.1c0,0.7,0.2,0.9,1.2,0.9h0.7v1.4h-1.2c-1.7,0-2.3-0.3-2.3-2.1v-6.2h-1.7
			v-1.4h1.7v-2.9h1.6V113.4 M376.4,122c2.2,0,3-1.9,3-3.7c0-1.9-0.9-3.7-3.1-3.7c-2.2,0-2.9,1.9-2.9,3.8
			C373.3,120.3,374.3,122,376.4,122z M380.9,123.2h-1.6v-1.3h0c-0.5,1.1-1.8,1.6-3.1,1.6c-3,0-4.5-2.4-4.5-5.2
			c0-2.8,1.5-5.1,4.5-5.1c1,0,2.4,0.4,3.2,1.5h0v-5h1.6V123.2 M361.6,113.4h1.5v1.6h0c0.7-1.2,1.8-1.8,3.2-1.8
			c2.6,0,3.4,1.5,3.4,3.6v6.4h-1.6v-6.6c0-1.2-0.8-2-2-2c-2,0-2.9,1.3-2.9,3.1v5.5h-1.6L361.6,113.4 M357.3,118.2
			c-0.6,0.5-1.8,0.5-2.9,0.7c-1.1,0.2-2,0.6-2,1.8c0,1.1,0.9,1.4,1.9,1.4c2.1,0,3-1.3,3-2.2V118.2L357.3,118.2z M359.9,123.2
			c-0.3,0.2-0.6,0.3-1.2,0.3c-0.8,0-1.4-0.5-1.4-1.5c-0.9,1-2.1,1.5-3.4,1.5c-1.8,0-3.2-0.8-3.2-2.7c0-2.2,1.6-2.7,3.3-3
			c1.8-0.3,3.3-0.2,3.3-1.4c0-1.4-1.2-1.6-2.2-1.6c-1.4,0-2.4,0.4-2.4,1.9h-1.6c0.1-2.4,2-3.3,4.1-3.3c1.8,0,3.7,0.4,3.7,2.7v5
			c0,0.8,0,1.1,0.5,1.1c0.1,0,0.3,0,0.5-0.1V123.2 M346.6,123.2h-1.7l-2-7.8h0l-2,7.8h-1.7l-3.1-9.8h1.8l2.2,8h0l2-8h1.8l2,8h0
			l2.2-8h1.7L346.6,123.2 M333.5,117.4c-0.1-1.5-1.2-2.8-2.8-2.8c-1.7,0-2.7,1.3-2.8,2.8H333.5L333.5,117.4z M335.1,120.1
			c-0.4,2.2-2,3.3-4.2,3.3c-3.1,0-4.6-2.2-4.7-5.2c0-2.9,1.9-5.1,4.6-5.1c3.5,0,4.5,3.2,4.4,5.6h-7.3c-0.1,1.7,0.9,3.2,3.1,3.2
			c1.3,0,2.3-0.6,2.5-1.9H335.1 M322.7,118.1c0-1.7-0.8-3.5-2.8-3.5c-2.1,0-2.9,1.7-2.9,3.6c0,1.8,0.6,3.7,2.8,3.7
			C321.9,121.9,322.7,120,322.7,118.1L322.7,118.1z M324.3,122.4c0,3.2-1.5,4.8-4.5,4.8c-1.8,0-4-0.7-4.1-2.9h1.6
			c0.1,1.2,1.5,1.6,2.5,1.6c2.1,0,2.9-1.5,2.9-3.7v-0.6h0c-0.5,1.2-1.8,1.8-3.1,1.8c-2.9,0-4.4-2.3-4.4-5c0-2.3,1.1-5.2,4.5-5.2
			c1.2,0,2.3,0.5,2.9,1.6h0h0v-1.4h1.5L324.3,122.4 M305.3,113.4h1.5v1.6h0c0.7-1.2,1.8-1.8,3.2-1.8c2.6,0,3.4,1.5,3.4,3.6v6.4h-1.6
			v-6.6c0-1.2-0.8-2-2-2c-2,0-2.9,1.3-2.9,3.1v5.5h-1.6L305.3,113.4 M295.6,117.7h4.6l-2.3-6.3h0L295.6,117.7L295.6,117.7z
			 M297,109.7h2l5.3,13.5h-2l-1.5-4.1h-5.7l-1.5,4.1h-1.9L297,109.7 M281.6,113.4h1.5v2.1h0c0.8-1.6,1.9-2.4,3.6-2.3v1.7
			c-2.6,0-3.5,1.5-3.5,4v4.4h-1.6L281.6,113.4 M276,110.1h1.7v2H276V110.1z M272.5,110.1h1.7v2h-1.7V110.1z M279.2,123.2h-1.5v-1.6
			h0c-0.7,1.2-1.8,1.8-3.2,1.8c-2.6,0-3.4-1.5-3.4-3.6v-6.4h1.6v6.6c0,1.2,0.8,2,2,2c1.9,0,2.9-1.3,2.9-3.1v-5.5h1.6L279.2,123.2
			 M266.1,114.9h-1.6v-1.4h1.6V112c0-1.6,0.9-2.4,2.7-2.4c0.3,0,0.7,0.1,1,0.2v1.4c-0.3-0.1-0.6-0.1-0.9-0.1c-0.8,0-1.2,0.2-1.2,1.1
			v1.4h1.9v1.4h-1.9v8.4h-1.6L266.1,114.9 M432.7,93.7c-0.1-1.5-1.2-2.8-2.8-2.8c-1.7,0-2.7,1.3-2.8,2.8H432.7z M434.2,96.5
			c-0.4,2.2-2,3.3-4.2,3.3c-3.1,0-4.6-2.2-4.7-5.2c0-2.9,1.9-5.1,4.6-5.1c3.5,0,4.5,3.2,4.4,5.6H427c-0.1,1.7,0.9,3.2,3.1,3.2
			c1.3,0,2.3-0.6,2.5-1.9H434.2 M421.9,99.6h1.6V86h-1.6V99.6z M419.4,99.6h-1.5V98h0c-0.7,1.2-1.8,1.8-3.2,1.8
			c-2.6,0-3.4-1.5-3.4-3.6v-6.4h1.6v6.6c0,1.2,0.8,2,2,2c1.9,0,2.9-1.3,2.9-3.1v-5.5h1.6L419.4,99.6 M400.8,86h1.6v5.2h0
			c0.5-1.2,1.9-1.7,3.1-1.7c2.6,0,3.4,1.5,3.4,3.6v6.4h-1.6v-6.6c0-1.2-0.8-2-2-2c-2,0-2.9,1.3-2.9,3.1v5.5h-1.6L400.8,86
			 M397.2,92.9c-0.2-1.2-1.1-2-2.4-2c-2.3,0-3.1,1.8-3.1,3.8c0,1.8,0.8,3.6,2.9,3.6c1.6,0,2.5-0.9,2.7-2.4h1.6
			c-0.4,2.4-1.9,3.8-4.3,3.8c-3,0-4.6-2.1-4.6-5c0-2.9,1.5-5.2,4.6-5.2c2.2,0,4,1,4.2,3.4H397.2 M382.2,96.5
			c0.1,1.4,1.3,1.9,2.6,1.9c1,0,2.4-0.2,2.4-1.5c0-1.2-1.6-1.5-3.2-1.8c-1.6-0.4-3.2-0.9-3.2-2.8c0-2,2-2.8,3.7-2.8
			c2.2,0,3.9,0.7,4,3.1h-1.6c-0.1-1.2-1.2-1.6-2.3-1.6c-1,0-2.1,0.3-2.1,1.3c0,1.2,1.7,1.3,3.2,1.7c1.6,0.4,3.2,0.9,3.2,2.8
			c0,2.3-2.2,3.1-4.2,3.1c-2.2,0-4.1-0.9-4.2-3.3H382.2 M370.7,86h1.6v5.2h0c0.5-1.2,1.9-1.7,3.1-1.7c2.6,0,3.4,1.5,3.4,3.6v6.4
			h-1.6v-6.6c0-1.2-0.8-2-2-2c-2,0-2.9,1.3-2.9,3.1v5.5h-1.6L370.7,86 M367.1,92.9c-0.2-1.2-1.1-2-2.4-2c-2.3,0-3.1,1.8-3.1,3.8
			c0,1.8,0.8,3.6,2.9,3.6c1.6,0,2.5-0.9,2.7-2.4h1.6c-0.4,2.4-1.9,3.8-4.3,3.8c-3,0-4.6-2.1-4.6-5c0-2.9,1.5-5.2,4.6-5.2
			c2.2,0,4,1,4.2,3.4H367.1 M353.9,98.4c1.7,0,3-1.3,3-3.7c0-2.4-1.4-3.7-3-3.7s-3.1,1.3-3.1,3.7C350.9,97,352.2,98.4,353.9,98.4z
			 M353.9,89.5c3.1,0,4.8,2.3,4.8,5.1c0,2.9-1.6,5.1-4.8,5.1s-4.8-2.3-4.8-5.1C349.2,91.8,350.8,89.5,353.9,89.5 M336.5,86h1.8v5.8
			h7.1V86h1.8v13.5h-1.8v-6.2h-7.1v6.2h-1.8V86 M324.6,89.8h1.5v2.1h0c0.8-1.6,1.9-2.4,3.6-2.3v1.7c-2.6,0-3.5,1.5-3.5,4v4.4h-1.6
			L324.6,89.8 M321.1,93.7c-0.1-1.5-1.2-2.8-2.8-2.8c-1.7,0-2.7,1.3-2.8,2.8H321.1L321.1,93.7z M322.7,96.5c-0.4,2.2-2,3.3-4.2,3.3
			c-3.1,0-4.6-2.2-4.7-5.2c0-2.9,1.9-5.1,4.6-5.1c3.5,0,4.5,3.2,4.4,5.6h-7.3c-0.1,1.7,0.9,3.2,3.1,3.2c1.3,0,2.3-0.6,2.5-1.9H322.7
			 M304,86h1.6v5.2h0c0.5-1.2,1.9-1.7,3.1-1.7c2.6,0,3.4,1.5,3.4,3.6v6.4h-1.6v-6.6c0-1.2-0.8-2-2-2c-2,0-2.9,1.3-2.9,3.1v5.5H304
			L304,86 M300.4,92.9c-0.2-1.2-1.1-2-2.4-2c-2.3,0-3.1,1.8-3.1,3.8c0,1.8,0.8,3.6,2.9,3.6c1.6,0,2.5-0.9,2.7-2.4h1.6
			c-0.4,2.4-1.9,3.8-4.3,3.8c-3,0-4.6-2.1-4.6-5c0-2.9,1.5-5.2,4.6-5.2c2.2,0,4,1,4.2,3.4H300.4 M287.3,89.8h1.5v2.1h0
			c0.8-1.6,1.9-2.4,3.6-2.3v1.7c-2.6,0-3.5,1.5-3.5,4v4.4h-1.6L287.3,89.8 M281.8,86.4h1.7v2h-1.7V86.4z M278.3,86.4h1.7v2h-1.7
			V86.4z M284.9,99.6h-1.5V98h0c-0.7,1.2-1.8,1.8-3.2,1.8c-2.6,0-3.4-1.5-3.4-3.6v-6.4h1.6v6.6c0,1.2,0.8,2,2,2
			c1.9,0,2.9-1.3,2.9-3.1v-5.5h1.6L284.9,99.6 M264.7,98l8.4-10.5h-7.8V86h9.9v1.5L266.8,98h8.6v1.5h-10.8V98"/>
	</g>
</g>
</svg>
