<?xml version="1.0" encoding="utf-8"?>
<!-- Generator: Adobe Illustrator 25.2.1, SVG Export Plug-In . SVG Version: 6.00 Build 0)  -->
<svg version="1.1" xmlns="http://www.w3.org/2000/svg" xmlns:xlink="http://www.w3.org/1999/xlink" x="0px" y="0px"
	 viewBox="0 0 800 500" style="enable-background:new 0 0 800 500;" xml:space="preserve">
<style type="text/css">
	.st0{display:none;}
	.st1{fill-rule:evenodd;clip-rule:evenodd;}
	.st2{fill:#FEFAFA;}
	.st3{fill:#1D1D1B;}
</style>
<g id="Lines" class="st0">
</g>
<g id="Ebene_1">
	<g>
		<path d="M600.2,286.4l-14.3,0.1l0.1-72.3h14.1v-12.7h-57.8v12.7h13.7v72.4l-21.1-0.2c-2.6-0.5-10-3.4-17.2-14.7
			c-11.7-18.3-24.2-21.7-24.2-21.7s26.4-0.1,26.1-24.3c-0.3-24.5-26.3-24.1-26.3-24.1h-35.3v12.7h33.2c0,0,14.8-0.8,14.2,13.5
			c-0.6,15.3-17.8,15.5-17.8,15.5h-20.2v12.1c0,0,9.9,2.1,22.1,24c11.9,21.4,29.8,20.2,29.8,20.2h80.9V286.4L600.2,286.4z"/>
		<path d="M422.3,250.3c0,0,26.4-0.1,26.1-24.3c-0.3-24.5-26.5-24.5-26.5-24.5h-30h-7.1h-32.9v12.7h13.3v50.9c0,0-0.4,22-22.2,22
			c-18.1,0-20.1-16.4-20.1-16.4v-56.5l-0.1-12.7h-43.2v12.7h13.4v50.1c0,0-1.8,36.6,44.8,37.1c37.5,0.4,40.4-33.3,40.4-33.3
			l0.1-53.9l5.2,0.2l36.2-0.2c0,0,14.9-0.4,14.4,13.9c-0.6,15.3-17.8,15.3-17.8,15.3h-20v11.9c0,0,9.9,2.6,22.1,24
			c11.9,21,26.9,20.2,26.9,20.2h24v-12.9l-7.4,0c-2.6-0.5-8-3.5-15.1-14.9C435,252.9,422.3,250.3,422.3,250.3"/>
		<path d="M249.4,248.5c0,0,19.7-1,19.7-21.8c0-24.3-24.8-25.2-24.8-25.2h-72v12.7h13.7v72.4h-13.7v12.9l78.3,0
			c0,0,25.8-1.1,25.8-26C276.5,247.5,249.4,248.5,249.4,248.5 M238.1,243.3h-22.3v-29h25.8c0,0,13.6,1,13.6,14.2
			C255.2,241.1,238.1,243.3,238.1,243.3 M261.7,271.8c0,15-14.6,14.8-14.6,14.8h-31.2v-31.2h29.6
			C245.4,255.4,261.7,256.4,261.7,271.8"/>
		<path d="M272.5,341.2c-3.7,0-4.2,3-4.2,7c0,4,0.5,7.1,4.2,7.1c3.7,0,4.2-3.1,4.2-7.1C276.7,344.2,276.2,341.2,272.5,341.2
			L272.5,341.2z M280.3,358.7c-1.4,1.4-3.6,2.2-6,2.2c-2.5,0-4.4-0.7-6-2.5v11.2h-6.2v-33.7h6v2.3c1.7-1.9,3.5-2.6,6.2-2.6
			c2.4,0,4.6,0.9,6,2.2c2.5,2.5,2.5,6.7,2.5,10.4C282.8,351.9,282.8,356.2,280.3,358.7L280.3,358.7z"/>
		<path d="M302.9,360.6v-2.3c-1.6,1.7-3.9,2.6-6.2,2.6c-2.5,0-4.4-0.8-5.8-2.2c-2-2-2.5-4.3-2.5-7v-15.8h6.1v14.9
			c0,3.4,2.1,4.5,4.1,4.5c1.9,0,4.1-1.1,4.1-4.5v-14.9h6.2v24.7H302.9L302.9,360.6z"/>
		<path d="M326.1,341.2c-3.7,0-4.2,3-4.2,7c0,4,0.5,7.1,4.2,7.1c3.7,0,4.2-3.1,4.2-7.1C330.3,344.2,329.8,341.2,326.1,341.2
			L326.1,341.2z M333.9,358.7c-1.4,1.4-3.6,2.2-6,2.2c-2.6,0-4.4-0.7-6.2-2.6v2.3h-6v-33.7h6.2v11.2c1.6-1.8,3.5-2.5,6-2.5
			c2.4,0,4.6,0.9,6,2.2c2.5,2.5,2.5,6.7,2.5,10.4C336.4,351.9,336.4,356.2,333.9,358.7L333.9,358.7z"/>
		<path d="M349.3,360.6c-5.1,0-7.2-3.6-7.2-7.1v-26.6h6.2v26.3c0,1.5,0.6,2.2,2.2,2.2h2.4v5.2H349.3L349.3,360.6z"/>
		<path d="M357.7,360.6v-24.7h6.2v24.7H357.7L357.7,360.6z M357.6,331.7v-5h6.3v5H357.6L357.6,331.7z"/>
		<path d="M380.5,360.9c-4.9,0-11-2.7-11-12.6c0-10,6.1-12.6,11-12.6c3.4,0,6,1,8.1,3.3l-4.2,4.2c-1.3-1.4-2.4-1.9-4-1.9
			c-1.5,0-2.6,0.5-3.5,1.6c-0.9,1.2-1.4,2.8-1.4,5.4c0,2.6,0.4,4.3,1.4,5.5c0.9,1.1,2,1.6,3.5,1.6c1.6,0,2.7-0.6,4-1.9l4.2,4.1
			C386.4,359.8,383.9,360.9,380.5,360.9L380.5,360.9z"/>
		<path d="M418,343.3c-0.7-1.5-2-2.6-4.1-2.6c-2.1,0-3.5,1.1-4.1,2.6c-0.4,0.9-0.5,1.6-0.6,2.6h9.4
			C418.5,344.9,418.4,344.2,418,343.3L418,343.3z M409.2,350.2c0,3.2,1.9,5.5,5.4,5.5c2.7,0,4-0.8,5.6-2.3l3.7,3.6
			c-2.5,2.5-4.9,3.9-9.4,3.9c-5.8,0-11.4-2.7-11.4-12.6c0-8,4.4-12.6,10.7-12.6c6.9,0,10.7,5,10.7,11.8v2.7H409.2L409.2,350.2z"/>
		<path d="M437.3,360.6c-5.1,0-7.2-3.6-7.2-7.1v-26.6h6.2v26.3c0,1.5,0.6,2.2,2.2,2.2h2.4v5.2H437.3L437.3,360.6z"/>
		<path d="M458.1,343.3c-0.7-1.5-2-2.6-4.1-2.6c-2.1,0-3.5,1.1-4.1,2.6c-0.4,0.9-0.5,1.6-0.6,2.6h9.4
			C458.7,344.9,458.5,344.2,458.1,343.3L458.1,343.3z M449.3,350.2c0,3.2,1.9,5.5,5.4,5.5c2.7,0,4-0.8,5.6-2.3l3.7,3.6
			c-2.5,2.5-4.9,3.9-9.4,3.9c-5.8,0-11.4-2.7-11.4-12.6c0-8,4.3-12.6,10.7-12.6c6.9,0,10.7,5,10.7,11.8v2.7H449.3L449.3,350.2z"/>
		<path d="M499.1,360.6v-14.9c0-3.4-2.1-4.5-4.1-4.5c-1.9,0-4.1,1.1-4.1,4.4v15h-6.1v-14.9c0-3.4-2.1-4.5-4.1-4.5
			c-1.9,0-4.1,1.1-4.1,4.5v14.9h-6.1v-24.7h6v2.3c1.6-1.7,3.9-2.6,6.2-2.6c2.7,0,5,1,6.5,3.1c2.1-2.2,4.3-3.1,7.4-3.1
			c2.5,0,4.7,0.8,6.1,2.2c2,2,2.7,4.3,2.7,7v15.8H499.1L499.1,360.6z"/>
		<path d="M525.5,343.3c-0.7-1.5-2-2.6-4.1-2.6c-2.1,0-3.5,1.1-4.1,2.6c-0.4,0.9-0.5,1.6-0.6,2.6h9.4
			C526,344.9,525.9,344.2,525.5,343.3L525.5,343.3z M516.7,350.2c0,3.2,1.9,5.5,5.4,5.5c2.7,0,4-0.8,5.6-2.3l3.7,3.6
			c-2.5,2.5-4.9,3.9-9.4,3.9c-5.8,0-11.4-2.7-11.4-12.6c0-8,4.4-12.6,10.7-12.6c6.9,0,10.7,5,10.7,11.8v2.7H516.7L516.7,350.2z"/>
		<path d="M552.2,360.6v-14.9c0-3.4-2.1-4.5-4.1-4.5c-1.9,0-4.1,1.1-4.1,4.5v14.9h-6.2v-24.7h6v2.3c1.6-1.7,3.9-2.6,6.2-2.6
			c2.5,0,4.4,0.8,5.8,2.2c2,2,2.5,4.3,2.5,7v15.8H552.2L552.2,360.6z"/>
		<path d="M572.6,360.6c-5,0-7.1-3.6-7.1-7.1v-12.2h-2.6v-4.7h2.6v-7.3h6.2v7.3h4.4v4.7h-4.4v11.8c0,1.4,0.7,2.2,2.1,2.2h2.2v5.2
			H572.6L572.6,360.6z"/>
		<path d="M589.7,360.9c-3.9,0-7.4-0.4-10.5-3.5l4-4c2,2,4.7,2.3,6.6,2.3c2.1,0,4.4-0.7,4.4-2.6c0-1.2-0.7-2.1-2.6-2.3l-3.9-0.4
			c-4.4-0.4-7.2-2.4-7.2-6.9c0-5.1,4.5-7.9,9.5-7.9c3.8,0,7,0.7,9.4,2.9l-3.8,3.8c-1.4-1.3-3.6-1.7-5.7-1.7c-2.5,0-3.5,1.1-3.5,2.4
			c0,0.9,0.4,1.9,2.6,2.1l3.9,0.4c4.9,0.5,7.3,3.1,7.3,7.2C600.1,358.3,595.5,360.9,589.7,360.9L589.7,360.9z"/>
		<path d="M627.6,326.7c0-6.1-4.9-11-11-11c-6.1,0-11,4.9-11,11c0,6.1,4.9,11,11,11C622.7,337.7,627.6,332.8,627.6,326.7
			 M625.9,326.7c0,5.2-4.2,9.4-9.3,9.4s-9.3-4.2-9.3-9.4c0-5.2,4.1-9.4,9.3-9.4S625.9,321.5,625.9,326.7 M621.2,332.7l-2.9-5.2
			c1.5-0.5,2.6-1.6,2.6-3.3c0-2-1.7-3.6-3.8-3.6H613v12.1h1.7v-4.9h1.8l2.8,4.9H621.2L621.2,332.7z M619.2,324.2
			c0,1.2-0.9,2.1-2.3,2.1h-2.3v-4.2h2.3C618.3,322.1,619.2,323,619.2,324.2"/>
	</g>
</g>
</svg>
