<?xml version="1.0" encoding="utf-8"?>
<!-- Generator: Adobe Illustrator 25.2.1, SVG Export Plug-In . SVG Version: 6.00 Build 0)  -->
<svg version="1.1" xmlns="http://www.w3.org/2000/svg" xmlns:xlink="http://www.w3.org/1999/xlink" x="0px" y="0px"
	 viewBox="0 0 800 500" style="enable-background:new 0 0 800 500;" xml:space="preserve">
<style type="text/css">
	.st0{display:none;}
	.st1{fill-rule:evenodd;clip-rule:evenodd;}
	.st2{fill:#FEFAFA;}
	.st3{fill:#1D1D1B;}
</style>
<g id="Lines" class="st0">
</g>
<g id="Ebene_1">
	<g>
		<path d="M303.2,294.9c-21.5,4.9-43,8.1-64.4,0c-19.3-7.3-29.9-25.2-28.6-47.7c1.1-18.8,14.6-34.3,34.7-39.5
			c17.4-4.5,34.8-3.2,52.2,0c1.9,0.4,2.7,1.2,2.7,3.2c-0.1,7,0,14,0,21.8c-9.5-4.2-18.8-5.5-28.5-4.8c-9.6,0.7-18,4-22.3,13.1
			c-4.5,9.5-3.9,19.3,1.5,28.4c4.2,6.9,12.5,9.1,22.6,6.4c0-7.8,0-15.7,0-23.9c10.2,0,20,0,30,0
			C303.2,266.2,303.2,280.3,303.2,294.9z"/>
		<path d="M433,297.8c-11.1,0-21.8,0-32.7,0c0-32.4,0-64.9,0-97.8c10.7,0,21.4,0,32.6,0c0,12.4,0,24.7,0,38.2
			c8.8-10.1,19.1-11.5,30.2-8.9c9,2.1,13.9,8,14.6,17.2c1.2,16.9,0.2,33.8,0.5,51.1c-11,0-21.8,0-33.2,0c0-5.8,0-11.9,0-17.9
			c0-7.2,0-14.4,0-21.6c-0.1-6.3-1.7-8.7-5.8-8.7c-4.2-0.1-6.2,2.6-6.2,8.9c0,11.8,0,23.6,0,35.5C433,295,433,296.1,433,297.8z"/>
		<path d="M548.4,228.7c0,9.2,0,18.1,0,27.2c-1.1-0.1-2-0.3-2.9-0.4c-13.1-1.4-21.5,6.1-21.5,19.3c0,7.6,0,15.3,0,23.1
			c-11.1,0-21.7,0-32.7,0c0-22.6,0-45.2,0-68c10.1,0,20.3,0,30.8,0c0,4.5,0,8.9,0,13.2C527.9,232.8,535.6,226.4,548.4,228.7z"/>
		<path d="M557.2,297.7c0-22.6,0-45.1,0-67.7c10.9,0,21.7,0,32.7,0c0,22.5,0,45,0,67.7C579.2,297.7,568.5,297.7,557.2,297.7z"/>
		<path d="M557.2,222c0-7.4,0-14.5,0-22c10.8,0,21.6,0,32.6,0c0,7.3,0,14.5,0,22C579.1,222,568.4,222,557.2,222z"/>
		<path d="M391.2,271.9c-15.4,0-30.4,0-45.4,0c0.4,5.5,2.4,8.2,8.3,9.5c9,2,18,1.5,26.9-1.1c1.6-0.5,3.3-1.1,5.2-1.8
			c0,5.9,0,11.4,0,17.4c-17.7,4.2-35.5,6.7-53.2-0.2c-14.4-5.6-21.5-19.1-20.2-36.5c1.1-15.2,8.9-24.5,24.2-28.8
			c9-2.5,18.2-3.1,27.4-1.6c12.8,2.1,21.2,9.7,24.7,22.2C391.1,257.7,391.6,264.5,391.2,271.9z M362.4,257.2
			c0.3-4.8,0.1-9.3-4.1-12.2c-2.7-1.9-5.9-1.8-8.5,0.2c-3.9,2.9-4.9,7.1-4.3,12C351.2,257.2,356.7,257.2,362.4,257.2z"/>
		<path class="st2" d="M362.4,257.2c-5.7,0-11.2,0-17,0c-0.5-4.9,0.4-9.1,4.3-12c2.6-2,5.8-2,8.5-0.2
			C362.5,248,362.7,252.5,362.4,257.2z"/>
	</g>
</g>
</svg>
