<?xml version="1.0" encoding="utf-8"?>
<!-- Generator: Adobe Illustrator 25.2.1, SVG Export Plug-In . SVG Version: 6.00 Build 0)  -->
<svg version="1.1" xmlns="http://www.w3.org/2000/svg" xmlns:xlink="http://www.w3.org/1999/xlink" x="0px" y="0px"
	 viewBox="0 0 800 500" style="enable-background:new 0 0 800 500;" xml:space="preserve">
<style type="text/css">
	.st0{display:none;}
	.st1{fill-rule:evenodd;clip-rule:evenodd;}
	.st2{fill:#FEFAFA;}
	.st3{fill:#1D1D1B;}
</style>
<g id="Lines" class="st0">
</g>
<g id="Ebene_1">
	<g>
		<path d="M578,250.2c-0.1,23.2-12.1,40.8-31.5,46.4c-25.3,7.2-48.2-5.1-56.2-30.2c-7-22.2,0.8-46.7,18.2-56.9
			c15.8-9.2,32.1-9.5,47.8-0.8C572.3,217.5,578.1,232.6,578,250.2z M507,250c-0.2,6.5,0.5,12.7,2.8,18.6
			c4.1,10.6,13.5,17.6,23.8,17.3c10.5-0.3,19.7-7.4,23.1-18.1c3.7-11.5,4-23,0.2-34.6c-3.6-10.8-12.4-17.9-23-18.2
			c-10.4-0.3-19.5,5.9-23.8,16C507.5,237.2,506.7,243.6,507,250z"/>
		<path d="M287,306.1c3.7-15.6,3.2-30.9,7.1-45.5c4.7-17.9,18.9-28.2,39.9-29.1c3.9-0.1,7.8,0,11.7,0.5c3.3,0.4,4.5,2.3,2.5,5.4
			c-3.2,5.1-6.9,9-13.8,8.3c-20.5-2.2-31.9,16.7-31.5,34.6c0.1,5.1,2.5,6.4,7,5.4c2.3-0.5,4.6-0.9,6.9-1.2
			c30.6-3,40.3-25.4,36.3-52.8c-2.1-14-14.8-20.8-28.2-16c-3.7,1.2-7.2,3-10.4,5.4c-2.8,2.1-5.2,2.1-7.4-0.8
			c-2.1-2.8-3.3-5.7-0.2-8.3c11-9.4,23.9-11,37.5-8.9c11.6,1.8,20.7,7.6,22.9,19.5c4,20.6,2.4,40.7-10.1,58.5
			c-6.4,9.2-16.5,12.9-27,14.3C315.6,297.4,300.6,297.5,287,306.1z"/>
		<path d="M459.4,202.9c6.2-0.3,13.1,0.6,19.5,4.2c2.8,1.5,5,3.3,3.1,6.8c-1.7,3.2-3.1,6.9-8.2,4.9c-8-3.1-16.2-4.3-24.5-1.3
			c-12.2,4.4-19.3,12.9-20.6,26c-1.1,11.5,0.3,22.5,8.2,31.7c8.9,10.4,23,12.7,38.9,6.4c5.7-2.3,8.4-0.8,9.1,4.8
			c0.4,3.3-1.7,4.7-4,6c-26,13.7-66.4,5.7-71-35.9C406.3,224.9,426.7,203,459.4,202.9z"/>
		<path d="M255.6,201.6c8.3,0.2,15.3,2.8,21.8,7c2.6,1.7,5.4,3.8,3,7.6c-2.2,3.6-5,5.3-9.1,2.6c-4.7-3-9.6-5.1-15.4-4.7
			c-5.8,0.4-11.3,1.8-13.3,7.7c-2,5.7,2.2,9.4,6.2,12.4c5.5,4,11.5,7.2,17.1,11.1c6.9,4.8,13.4,9.9,16.3,18.4
			c4.4,13.2-1.6,26.1-15.6,31.6c-14.9,5.9-28.7,3.2-41.1-6.8c-3.3-2.7-5.1-5.2-1.3-9c3-3,5.4-6.6,10.1-1.7c4.2,4.5,10,6.7,16.1,7.6
			c6.2,1,11.5-1.3,14.8-6.7c3.3-5.5,1.4-10.6-2.8-14.9c-6.9-7.3-15.8-12-23.6-18.1c-4.5-3.6-9.2-7.1-11.1-12.8
			c-4-11.5,1.6-23.3,13.4-28.1C245.5,202.9,250.5,201.8,255.6,201.6z"/>
		<path d="M381.3,231.5c0-18.6,0-37.1,0-55.7c0-3-1.1-6.9,2.7-8.3c3.9-1.5,8.3-1.5,12.3,0.1c3.2,1.4,2.4,4.9,2.4,7.7
			c0.1,14.4,0,28.8,0,43.1c0,18.6,0.1,37.1,0,55.7c0,6.8,0.3,13.6,2.1,20.2c0.5,1.6,1.9,3.4-0.4,4.8c-7,4.3-18.9-1.5-19-9.7
			c-0.2-19.3-0.1-38.7-0.1-58L381.3,231.5z"/>
	</g>
</g>
</svg>
