<?xml version="1.0" encoding="utf-8"?>
<!-- Generator: Adobe Illustrator 25.2.1, SVG Export Plug-In . SVG Version: 6.00 Build 0)  -->
<svg version="1.1" xmlns="http://www.w3.org/2000/svg" xmlns:xlink="http://www.w3.org/1999/xlink" x="0px" y="0px"
	 viewBox="0 0 800 500" style="enable-background:new 0 0 800 500;" xml:space="preserve">
<style type="text/css">
	.st0{display:none;}
	.st1{fill-rule:evenodd;clip-rule:evenodd;}
	.st2{fill:#FEFAFA;}
	.st3{fill:#1D1D1B;}
</style>
<g id="Lines" class="st0">
</g>
<g id="Ebene_1">
	<g>
		<path d="M168.9,224.4c7,0,13,2.5,17.9,7.6c4.9,5,7.4,11.2,7.4,18.5c0,7.3-2.5,13.4-7.4,18.5c-4.9,5-10.9,7.6-17.9,7.6
			c-6.2,0-11.5-1.7-15.9-5.1v28.5h-11v-74.3h11v3.9C157.4,226.1,162.7,224.4,168.9,224.4z M167.3,266.9c4.5,0,8.3-1.6,11.3-4.9
			c3-3.2,4.6-7.1,4.6-11.6c0-4.5-1.5-8.4-4.6-11.6c-3-3.2-6.8-4.9-11.3-4.9c-6.1,0-10.8,2.5-14.3,7.4v18.2
			C156.5,264.5,161.2,266.9,167.3,266.9z"/>
		<path d="M230.1,224.3c8.3,0,14.7,2.8,19.3,8.4c4.6,5.6,6.4,12.6,5.3,21.1h-39.1c0.6,4,2.1,7.1,4.7,9.6c2.5,2.4,6,3.7,10.5,3.7
			c5.1,0,8.6-1.6,10.6-4.7h12.1c-1.6,4.4-4.4,7.9-8.5,10.5c-4.1,2.5-8.9,3.8-14.3,3.8c-7.8,0-14.1-2.5-19-7.5
			c-4.9-5-7.3-11.2-7.3-18.7c0-7.4,2.4-13.6,7.2-18.6C216.5,226.8,222.6,224.3,230.1,224.3z M239.8,236.8c-2.4-2.2-5.6-3.2-9.6-3.2
			c-4,0-7.1,1.2-9.6,3.5c-2.4,2.3-4,5.3-4.7,9h28C243.6,242.1,242.2,239,239.8,236.8z"/>
		<path d="M293.8,224.3c6.5,0,11.7,2.1,15.7,6.3c4,4.2,6,9.9,6,17v27.7h-11v-27.1c0-4.5-1.1-8-3.4-10.4c-2.3-2.4-5.4-3.6-9.5-3.6
			c-5.2,0-9.8,2.5-13.9,7.5v33.6h-11v-49.8h11v4.4C282.2,226.2,287.6,224.3,293.8,224.3z"/>
		<path d="M368.2,200.1h10.9v75.2h-10.9v-4c-4.4,3.5-9.7,5.3-16,5.3c-7,0-12.9-2.6-17.8-7.7c-4.9-5.1-7.4-11.3-7.4-18.6
			c0-7.2,2.5-13.3,7.4-18.4c4.9-5.1,10.9-7.6,17.8-7.6c6.2,0,11.5,1.7,16,5.2V200.1z M353.8,266.6c6.3,0,11.1-2.4,14.4-7.3v-17.9
			c-3.4-4.8-8.2-7.2-14.4-7.2c-4.5,0-8.3,1.6-11.3,4.7c-3,3.1-4.5,6.9-4.5,11.4c0,4.5,1.5,8.4,4.5,11.5
			C345.5,265,349.3,266.6,353.8,266.6z"/>
		<path d="M430.9,225.5h10.9v49.8h-10.9v-4.9c-4.5,4.1-9.9,6.1-16.2,6.1c-6.5,0-11.7-2.1-15.7-6.4c-4-4.3-5.9-10-5.9-17.1v-27.5H404
			v26.9c0,4.5,1.1,8,3.4,10.5c2.3,2.5,5.5,3.7,9.5,3.7c5.2,0,9.8-2.6,14-7.8V225.5z"/>
		<path d="M457,200.1h11v75.2h-11V200.1z"/>
		<path d="M521.6,225.5h10.9v49.8h-10.9v-3.9c-4.4,3.5-9.8,5.2-16,5.2c-7,0-12.9-2.5-17.8-7.6c-4.9-5.1-7.4-11.3-7.4-18.5
			c0-7.3,2.5-13.4,7.4-18.5c4.9-5.1,10.9-7.6,17.8-7.6c6.2,0,11.5,1.7,16,5.2V225.5z M507.2,266.6c6.2,0,11-2.4,14.4-7.2v-18
			c-3.4-4.8-8.2-7.2-14.4-7.2c-4.5,0-8.3,1.6-11.3,4.7c-3,3.1-4.5,7-4.5,11.5c0,4.5,1.5,8.3,4.5,11.5
			C498.9,265.1,502.7,266.6,507.2,266.6z"/>
		<path d="M558.8,232.3c4.8-5.2,10.9-7.8,18.4-7.8v10.4c-7.9,0.3-14,3.3-18.4,9.1v31.3h-11v-49.8h11V232.3z"/>
		<path d="M594.8,214c-2,0-3.6-0.6-5-1.9c-1.3-1.3-2-2.9-2-4.9c0-2,0.7-3.6,2-4.9c1.3-1.3,3-1.9,5-1.9c1.9,0,3.5,0.7,4.9,2
			c1.4,1.3,2.1,2.9,2.1,4.8c0,1.9-0.7,3.5-2.1,4.8C598.3,213.3,596.7,214,594.8,214z M589.4,225.5h10.9v49.8h-10.9V225.5z"/>
		<path d="M623.4,258.9c1.1,5.8,5.5,8.7,13.2,8.7c3.3,0,6-0.5,7.9-1.6c2-1.1,3-2.5,3-4.4c0-3.1-2.2-5-6.7-5.8l-11-1.9
			c-9.8-1.6-14.7-6.3-14.7-14.1c0-4.8,1.9-8.6,5.7-11.4c3.8-2.8,8.8-4.2,15.1-4.2c5.7,0,10.7,1.2,14.8,3.7c4.2,2.5,6.5,6.7,7,12.6
			h-10.2c-0.5-5-4.4-7.5-11.6-7.5c-3.1,0-5.5,0.5-7.3,1.6c-1.7,1.1-2.6,2.5-2.6,4.2c0,3.2,2.6,5.3,7.7,6.1l9.3,1.5
			c10,1.8,14.9,6.6,14.9,14.3c0,5.1-2,9-6,11.8c-4,2.8-9.2,4.1-15.7,4.1c-4.2,0-7.8-0.5-11-1.6c-3.2-1.1-5.9-3-8.1-5.8
			c-2.2-2.8-3.5-6.2-4-10.4L623.4,258.9z"/>
	</g>
</g>
</svg>
