<?xml version="1.0" encoding="utf-8"?>
<!-- Generator: Adobe Illustrator 25.2.1, SVG Export Plug-In . SVG Version: 6.00 Build 0)  -->
<svg version="1.1" xmlns="http://www.w3.org/2000/svg" xmlns:xlink="http://www.w3.org/1999/xlink" x="0px" y="0px"
	 viewBox="0 0 800 500" style="enable-background:new 0 0 800 500;" xml:space="preserve">
<style type="text/css">
	.st0{display:none;}
	.st1{fill-rule:evenodd;clip-rule:evenodd;}
	.st2{fill:#FEFAFA;}
	.st3{fill:#1D1D1B;}
</style>
<g id="Lines" class="st0">
</g>
<g id="Ebene_1">
	<g>
		<path d="M108,232.1h19.6v67.5H108V232.1L108,232.1z M109,219.6c-2.3-2.1-3.4-4.7-3.4-7.8c0-3.1,1.1-5.7,3.4-7.8
			c2.3-2.1,5.2-3.1,8.8-3.1c3.6,0,6.5,1,8.8,3c2.3,2,3.4,4.5,3.4,7.5c0,3.3-1.1,6-3.4,8.1c-2.3,2.1-5.2,3.2-8.8,3.2
			C114.2,222.7,111.3,221.7,109,219.6L109,219.6z"/>
		<path d="M207.1,238.6c5.1,5,7.7,12.5,7.7,22.3v38.6h-19.6V264c0-5.4-1.2-9.3-3.5-12c-2.3-2.6-5.7-4-10.2-4
			c-4.9,0-8.9,1.5-11.8,4.6c-2.9,3.1-4.4,7.6-4.4,13.6v33.4h-19.6v-67.5h18.7v7.9c2.6-2.8,5.8-5,9.7-6.6c3.8-1.5,8.1-2.3,12.7-2.3
			C195.2,231.1,201.9,233.6,207.1,238.6L207.1,238.6z"/>
		<path d="M276,296.3c-1.9,1.4-4.3,2.5-7.1,3.2c-2.8,0.7-5.8,1.1-8.8,1.1c-8,0-14.2-2-18.6-6.1c-4.4-4.1-6.6-10.1-6.6-18.1v-27.7
			h-10.4v-15.1h10.4v-16.4h19.6v16.4h16.8v15.1h-16.8v27.5c0,2.8,0.7,5,2.2,6.6c1.5,1.5,3.5,2.3,6.2,2.3c3.1,0,5.7-0.8,7.9-2.5
			L276,296.3L276,296.3z"/>
		<path d="M304.9,249.7c-3,2.5-4.9,5.9-5.5,10.3h33.3c-0.7-4.3-2.5-7.7-5.5-10.2c-3-2.6-6.7-3.8-11-3.8
			C311.6,245.9,307.9,247.2,304.9,249.7L304.9,249.7z M350.7,271.4h-51.1c0.9,4.2,3.1,7.5,6.5,9.9c3.4,2.4,7.7,3.6,12.8,3.6
			c3.5,0,6.6-0.5,9.3-1.6c2.7-1,5.2-2.7,7.6-5l10.4,11.3c-6.4,7.3-15.6,10.9-27.9,10.9c-7.6,0-14.3-1.5-20.2-4.5
			c-5.9-3-10.4-7.1-13.6-12.4c-3.2-5.3-4.8-11.2-4.8-17.9c0-6.6,1.6-12.6,4.7-17.9c3.1-5.3,7.4-9.5,12.9-12.4
			c5.5-3,11.6-4.5,18.4-4.5c6.6,0,12.6,1.4,17.9,4.3c5.4,2.8,9.6,6.9,12.6,12.2c3.1,5.3,4.6,11.5,4.6,18.5
			C351.1,266.4,350.9,268.1,350.7,271.4L350.7,271.4z"/>
		<path d="M425.4,238.6c5.1,5,7.7,12.5,7.7,22.3v38.6h-19.6V264c0-5.4-1.2-9.3-3.5-12c-2.3-2.6-5.7-4-10.2-4
			c-4.9,0-8.9,1.5-11.8,4.6c-2.9,3.1-4.4,7.6-4.4,13.6v33.4h-19.6v-67.5h18.7v7.9c2.6-2.8,5.8-5,9.7-6.6c3.8-1.5,8.1-2.3,12.7-2.3
			C413.5,231.1,420.3,233.6,425.4,238.6L425.4,238.6z"/>
		<path d="M494.4,296.3c-1.9,1.4-4.3,2.5-7.1,3.2c-2.8,0.7-5.8,1.1-8.8,1.1c-8,0-14.2-2-18.6-6.1c-4.4-4.1-6.6-10.1-6.6-18.1v-27.7
			h-10.4v-15.1h10.4v-16.4h19.6v16.4h16.8v15.1h-16.8v27.5c0,2.8,0.7,5,2.2,6.6c1.5,1.5,3.5,2.3,6.2,2.3c3.1,0,5.7-0.8,7.9-2.5
			L494.4,296.3L494.4,296.3z"/>
		<path d="M505.4,232.1H525v67.5h-19.6V232.1L505.4,232.1z M506.4,219.6c-2.3-2.1-3.4-4.7-3.4-7.8c0-3.1,1.1-5.7,3.4-7.8
			c2.3-2.1,5.2-3.1,8.8-3.1c3.6,0,6.5,1,8.8,3c2.3,2,3.4,4.5,3.4,7.5c0,3.3-1.1,6-3.4,8.1c-2.3,2.1-5.2,3.2-8.8,3.2
			C511.6,222.7,508.7,221.7,506.4,219.6L506.4,219.6z"/>
		<path d="M587.6,279.5c3.2-3.4,4.8-7.9,4.8-13.6c0-5.7-1.6-10.2-4.8-13.6c-3.2-3.4-7.3-5.1-12.4-5.1c-5,0-9.2,1.7-12.4,5.1
			c-3.3,3.4-4.9,7.9-4.9,13.6c0,5.7,1.6,10.2,4.9,13.6c3.3,3.4,7.4,5.1,12.4,5.1C580.3,284.6,584.4,282.9,587.6,279.5L587.6,279.5z
			 M556.1,296.2c-5.6-3-10.1-7.1-13.2-12.4c-3.2-5.3-4.8-11.2-4.8-17.9c0-6.7,1.6-12.7,4.8-17.9c3.2-5.3,7.6-9.4,13.2-12.4
			c5.7-3,12-4.5,19.1-4.5c7.1,0,13.5,1.5,19.1,4.5c5.6,3,10,7.1,13.2,12.4c3.2,5.3,4.8,11.3,4.8,17.9c0,6.7-1.6,12.7-4.8,17.9
			c-3.2,5.3-7.6,9.4-13.2,12.4c-5.6,3-12,4.5-19.1,4.5C568.2,300.6,561.8,299.1,556.1,296.2L556.1,296.2z"/>
		<path d="M686.6,238.6c5.1,5,7.7,12.5,7.7,22.3v38.6h-19.6V264c0-5.4-1.2-9.3-3.5-12c-2.3-2.6-5.7-4-10.2-4
			c-4.9,0-8.9,1.5-11.8,4.6c-2.9,3.1-4.4,7.6-4.4,13.6v33.4h-19.6v-67.5H644v7.9c2.6-2.8,5.8-5,9.7-6.6c3.9-1.5,8.1-2.3,12.7-2.3
			C674.7,231.1,681.5,233.6,686.6,238.6L686.6,238.6z"/>
	</g>
</g>
</svg>
