<?xml version="1.0" encoding="utf-8"?>
<!-- Generator: Adobe Illustrator 25.2.1, SVG Export Plug-In . SVG Version: 6.00 Build 0)  -->
<svg version="1.1" xmlns="http://www.w3.org/2000/svg" xmlns:xlink="http://www.w3.org/1999/xlink" x="0px" y="0px"
	 viewBox="0 0 800 500" style="enable-background:new 0 0 800 500;" xml:space="preserve">
<style type="text/css">
	.st0{display:none;}
	.st1{fill-rule:evenodd;clip-rule:evenodd;}
	.st2{fill:#FEFAFA;}
	.st3{fill:#1D1D1B;}
</style>
<g id="Lines" class="st0">
</g>
<g id="Ebene_1">
	<g id="layer1" transform="translate(-100.0881,-398.1962)">
		<path id="path93" d="M764.6,668.9V652h6.8l7.8,16.9h8.8l-9.1-18.5c5-1.4,7.6-5.6,7.6-10.7c0-6.8-3.8-12.3-13.3-12.3h-16.6v41.6
			H764.6L764.6,668.9z M764.6,633.8h7.2c4.4,0,6.7,1.9,6.7,5.9c0,3.9-1.9,5.8-8.1,5.8h-5.8L764.6,633.8L764.6,633.8z M749.4,668.9
			v-6.7h-20.2v-11.6h14.2V644h-14.2v-9.9h19.5v-6.7h-27.5v41.6L749.4,668.9L749.4,668.9z M714.4,668.9v-6.7h-18.1v-34.9h-7.9v41.6
			H714.4z M681.1,668.9v-6.7h-20.2v-11.6h14.2V644h-14.2v-9.9h19.5v-6.7H653v41.6L681.1,668.9L681.1,668.9z M624.4,627.4h-8.2
			l11.4,25v16.6h7.9v-16.6l11.4-25h-8.3l-7.1,16.5L624.4,627.4L624.4,627.4z M612.8,668.9v-6.7h-20.2v-11.6h14.2V644h-14.2v-9.9
			h19.5v-6.7h-27.5v41.6L612.8,668.9L612.8,668.9z M545.4,668.9h15.3c10.6,0,15.1-4.5,15.1-10.9c0-6.3-1.8-8.8-7.2-11
			c4.5-1.8,6.3-5.1,6.3-9.4c-0.4-7.4-5.8-10.2-14.1-10.2h-15.4V668.9L545.4,668.9z M553.3,650.4h7.9c4.6,0,6.6,2.1,6.6,6
			c0,4-2,6-6.6,6h-7.9V650.4L553.3,650.4z M553.3,633.8h7.9c3.8,0,5.7,2.2,5.7,5.1c0,2.8-1.9,5-5.7,5h-7.9V633.8z M491,668.9v-37.1
			h0.1l21,37.1h3.8v-41.6h-4.1v32h-0.2l-18.1-32h-6.6v41.6H491L491,668.9z M449.2,648.2c0-11.8,4.3-17.4,11.6-17.4
			c7.3,0,11.6,5.6,11.6,17.4c0,11.8-4.3,17.4-11.6,17.4C453.5,665.6,449.2,660,449.2,648.2z M444.6,648.2c0,13.9,6,21.4,16.2,21.4
			c10.2,0,16.2-7.5,16.2-21.4c0-13.8-6-21.3-16.2-21.3C450.7,626.8,444.6,634.3,444.6,648.2z M429.2,627.4v41.6h4.6v-41.6H429.2z
			 M420.1,631.3v-3.9h-29.5v3.9h12.4v37.6h4.6v-37.6H420.1z M376.2,630.6h0.6l6,21.4h-12.6L376.2,630.6z M365.1,668.9l3.9-13H384
			l3.9,13h4.8l-12.8-41.6h-6.8l-12.7,41.6H365.1L365.1,668.9z M330.3,631.3h6.4c8.5,0,14.3,4.7,14.3,16.8c0,11.2-4.9,16.9-14.5,16.9
			h-6.2V631.3z M325.7,668.9h10.9c12.4,0,19-8.6,19-20.8c0-13.6-7.5-20.8-18.7-20.8h-11.2V668.9L325.7,668.9z M288.2,668.9v-37.1
			h0.1l21,37.1h3.8v-41.6H309v32h-0.2l-18.1-32h-6.6v41.6H288.2L288.2,668.9z M246.5,648.2c0-11.8,4.3-17.4,11.6-17.4
			c7.3,0,11.6,5.6,11.6,17.4c0,11.8-4.3,17.4-11.6,17.4C250.7,665.6,246.5,660,246.5,648.2z M241.9,648.2c0,13.9,6,21.4,16.2,21.4
			c10.2,0,16.2-7.5,16.2-21.4c0-13.8-6-21.3-16.2-21.3C247.9,626.8,241.9,634.3,241.9,648.2z M212.1,627.4v41.6h4.6v-19.8h14.9v-3.9
			h-14.9v-13.9h20v-3.9H212.1L212.1,627.4z"/>
	</g>
</g>
</svg>
