<?xml version="1.0" encoding="utf-8"?>
<!-- Generator: Adobe Illustrator 25.2.1, SVG Export Plug-In . SVG Version: 6.00 Build 0)  -->
<svg version="1.1" xmlns="http://www.w3.org/2000/svg" xmlns:xlink="http://www.w3.org/1999/xlink" x="0px" y="0px"
	 viewBox="0 0 800 500" style="enable-background:new 0 0 800 500;" xml:space="preserve">
<style type="text/css">
	.st0{display:none;}
	.st1{fill-rule:evenodd;clip-rule:evenodd;}
	.st2{fill:#FEFAFA;}
	.st3{fill:#1D1D1B;}
</style>
<g id="Lines" class="st0">
</g>
<g id="Ebene_1">
	<g id="layer1_1_" transform="translate(-398.3552,-278.49787)">
		<g id="g5049" transform="matrix(3.4180139,0,0,3.4180139,-953.22844,-961.63926)">
			<path id="path2926" d="M543.2,438.4c0.4-2.3,1.5-5.1,4.8-5.1c3.5,0,4.3,3.1,4.3,5.1H543.2z M563.5,434.2c0-1.3,0-2.8-0.1-3.5
				h-3.7c0.1,0.9,0.2,4.8,0.2,7v12.6h4v-9.4c0-0.6,0.1-2,0.2-2.7c0.4-2.3,2.2-4,4.6-4c0.4,0,0.9,0,1,0.1l0.5-3.7
				c-0.1,0-0.7-0.2-1.5-0.2c-2.1,0-4.1,1.4-5,3.7H563.5z M537.6,434v-3.3h-5v-5.1l-4,1.2v18.4c0,3.2,1.5,5.6,5.6,5.6
				c1.9,0,3.6-0.6,3.9-0.7l-0.8-3.1c-0.2,0.2-1.2,0.6-2.2,0.6c-1.8,0-2.5-1.1-2.5-3V434H537.6z M525.6,444.7c0-3-1.5-4.6-4.8-5.9
				l-1.4-0.5c-1.9-0.8-2.6-1.4-2.6-2.6c0-1.3,1-2.4,3-2.4c1.8,0,3.1,0.9,3.5,1.2l1.7-2.9c-1.2-0.9-3-1.4-5-1.4
				c-4.3,0-6.9,2.7-6.9,5.9c0,2.4,1.4,4,4.4,5.3l1.4,0.6c2.2,0.9,2.9,1.8,2.9,3.1c0,1.6-1.1,2.6-3.4,2.6c-2.2,0-3.8-1.1-4.2-1.4
				l-1.7,3.1c0.2,0.2,2.5,1.5,6,1.5C522.8,450.8,525.6,448.3,525.6,444.7z M556.3,439.2c0-4-1.8-9-8.2-9c-5.8,0-9.2,4.4-9.2,10.5
				c0,6,3.6,10,9.7,10c3.1,0,5.3-0.7,6.8-1.3l-1.1-3.2c-0.9,0.4-2.7,1.2-5,1.2c-3.5,0-6.1-1.6-6.2-6h13.2
				C556.3,441.1,556.3,440.4,556.3,439.2z M509.4,430.7h-10.9v-1.2c0-2.7,0.6-5.1,3.9-5.1c1.9,0,2.9,1.1,3.2,1.3l2-2.9
				c-0.9-0.7-2.6-1.6-5.1-1.6c-5.5,0-8.1,3.5-8.1,8.6v20.5h4V434h6.8v16.3h4V430.7z M491.5,430.9c0-2.5-1-4.4-2.6-5.8
				c-1.7-1.5-4.2-2.3-7.7-2.3c-2.9,0-5,0.2-7,0.6v26.9h4.1v-10.7c0.2,0,1.4,0.2,2.9,0.2c3.2,0,6.1-1,7.9-2.9
				C490.7,435.3,491.5,433.4,491.5,430.9z M487.4,431.1c0,3.4-2.3,5.4-6.5,5.4c-1.3,0-2.2-0.2-2.6-0.2v-10c0.2,0,1.6-0.2,3-0.2
				C485.1,426.1,487.4,427.7,487.4,431.1"/>
			<path id="path2928" d="M454.8,450.3H470V423h-15.2V450.3z"/>
		</g>
	</g>
</g>
</svg>
